# xmcd
#
# Track frame offsets:
#	150
#	23160
#	44465
#	68868
#	89141
#	114909
#	135154
#	152318
#	178214
#	199347
#	224686
#
# Disc length: 3270 seconds
#
# Revision: 3
# Processed by: cddbd v1.5.2PL0 Copyright (c) Steve Scherf et al.
# Submitted via: EZCDAudioConverter 8.0.2.1
#
DISCID=9b0cc40b
DTITLE=Thái Châu, Phương Hồng Quế - Ngày Đó
DYEAR=2006
DGENRE=
TTITLE0=Thái Châu, Phương Hồng Quế - Ngày đó
TTITLE1=Phương Hồng Quế - Mùa mưa đi qua
TTITLE2=Thái Châu - Chiều một mình qua phố
TTITLE3=Thái Châu, Phương Hồng Quế - LK Thôi, Sầu đông, Không
TTITLE4=Phương Hồng Quế - Nếu một ngày
TTITLE5=Thái Châu - Lạnh trọn đêm mưa
TTITLE6=Phương Hồng Quế - LK Nỗi buồn gác trọ, Thu ca
TTITLE7=Thái Châu, Phương Hồng Quế - Mưa chiều kỷ niệm
TTITLE8=Phương Hồng Quế - Mơ về dĩ vãng
TTITLE9=Thái Châu - LK Linh hồn tượng đá, Xé thư tình, Thuở ấy có em
TTITLE10=Phương Hồng Quế - Còn nhớ Sài Gòn không
EXTD=
EXTT0=
EXTT1=
EXTT2=
EXTT3=
EXTT4=
EXTT5=
EXTT6=
EXTT7=
EXTT8=
EXTT9=
EXTT10=
PLAYORDER=
